<svg width="243" height="119" viewBox="0 0 243 119" fill="none" xmlns="http://www.w3.org/2000/svg">
<path d="M45.3383 79.2024C44.0912 77.9441 42.8796 76.6363 41.7252 75.3295C41.2946 74.8385 41.0727 74.2011 41.1082 73.5576C41.1437 72.9141 41.4337 72.3171 41.9145 71.898C42.3953 71.4788 43.0274 71.2719 43.6719 71.3227C44.3163 71.3735 44.9202 71.6779 45.3508 72.1688C46.4402 73.3959 47.5797 74.631 48.7547 75.8166C55.6531 82.7772 63.3121 88.1045 70.3294 90.8096C76.6076 93.2379 81.6516 93.2274 84.1305 90.7707C87.9375 86.9976 85.9574 77.5272 79.213 67.1989C79.019 66.9278 78.8811 66.6214 78.8075 66.2984C78.7339 65.9753 78.7263 65.6423 78.785 65.3193C78.8437 64.9964 78.9675 64.6902 79.149 64.4194C79.3305 64.1486 79.5659 63.9186 79.841 63.7436C80.1161 63.5685 80.4252 63.4518 80.7495 63.4007C81.0738 63.3496 81.4067 63.365 81.7281 63.446C82.0495 63.5271 82.3526 63.6721 82.6192 63.8723C82.8858 64.0724 83.1103 64.3237 83.2792 64.6107C91.5938 77.3332 93.2301 88.687 87.5977 94.2692C79.8699 101.928 61.3047 95.313 45.3383 79.2024Z" fill="url(#paint0_linear)"/>
<path d="M32.7065 58.0214C32.5728 57.9144 32.4518 57.7924 32.3461 57.6577C24.0598 44.8927 22.4235 33.5389 28.056 27.9568C35.7838 20.2981 54.3418 26.92 70.3083 43.0305C71.5553 44.2888 72.8024 45.5471 73.9212 46.8892C74.1349 47.1318 74.2997 47.4131 74.4062 47.7168C74.5126 48.0206 74.5587 48.341 74.5418 48.6596C74.5249 48.9783 74.4453 49.289 74.3076 49.574C74.1698 49.8591 73.9767 50.1128 73.7391 50.3208C73.5015 50.5288 73.2241 50.687 72.9229 50.7863C72.6216 50.8857 72.3023 50.9242 71.9832 50.8997C71.6642 50.8752 71.3515 50.7882 71.0632 50.6436C70.7749 50.499 70.5165 50.2997 70.3029 50.0571C69.2135 48.83 68.0668 47.602 66.8919 46.4164C59.9935 39.4558 52.3344 34.1285 45.3243 31.4163C39.046 28.9881 34.0021 28.9986 31.5232 31.4553C27.7161 35.2283 29.6963 44.6987 36.4335 55.0341C36.7673 55.5423 36.9036 56.1519 36.8159 56.7448C36.7283 57.3378 36.4229 57.8718 35.9591 58.2436C35.4952 58.6154 34.9057 58.7985 34.3049 58.7575C33.704 58.7164 33.1345 58.4541 32.7065 58.0214V58.0214Z" fill="url(#paint1_linear)"/>
<path d="M28.473 84.4917C20.6303 76.5783 26.8121 58.1683 42.5447 42.5763C46.3336 38.7888 50.5143 35.4137 55.0197 32.5052C55.2863 32.3357 55.5848 32.2212 55.8983 32.1683C56.2118 32.1153 56.5342 32.1248 56.847 32.1964C57.1598 32.2679 57.4569 32.4001 57.7213 32.5853C57.9857 32.7706 58.2123 33.0052 58.3881 33.2759C58.5639 33.5466 58.6855 33.848 58.746 34.1629C58.8064 34.4778 58.8045 34.8001 58.7404 35.1114C58.6762 35.4226 58.5511 35.7167 58.3722 35.9769C58.1932 36.237 57.9639 36.4582 57.6974 36.6276C53.4661 39.3704 49.5385 42.5479 45.9764 46.11C39.1791 52.8466 34.0332 60.3829 31.4873 67.3322C29.208 73.5559 29.3382 78.6026 31.8539 81.141C33.9516 83.2576 37.8044 83.7499 42.7107 82.5351C43.3329 82.3811 43.9967 82.4822 44.556 82.8161C45.1153 83.15 45.5243 83.6893 45.693 84.3155C45.8618 84.9417 45.7765 85.6034 45.4558 86.155C45.1352 86.7066 44.6055 87.1031 43.9833 87.257C37.2772 88.9004 31.9042 87.9538 28.473 84.4917Z" fill="url(#paint2_linear)"/>
<path d="M55.8562 79.9451C55.7456 79.8318 55.6464 79.7079 55.5601 79.5754C55.3776 79.3078 55.249 79.0079 55.1816 78.6931C55.1143 78.3783 55.1096 78.0548 55.1678 77.7412C55.226 77.4275 55.346 77.13 55.5208 76.8657C55.6956 76.6013 55.9218 76.3755 56.1863 76.2011C60.0984 73.5933 63.7421 70.6098 67.0673 67.2917C73.8646 60.5551 79.0105 53.0188 81.5491 46.0623C83.8285 39.8386 83.6983 34.7918 81.1825 32.2534C79.0921 30.1442 75.2321 29.6445 70.333 30.8666C70.0183 30.9638 69.6856 30.9952 69.3553 30.9591C69.0249 30.9229 68.7038 30.8199 68.4115 30.6564C68.1193 30.4928 67.862 30.2722 67.6555 30.0079C67.449 29.7436 67.2975 29.4412 67.2104 29.1192C67.1232 28.7972 67.1023 28.4624 67.1487 28.1352C67.1952 27.808 67.3081 27.4954 67.4806 27.2163C67.6531 26.9372 67.8815 26.6976 68.1519 26.5121C68.4222 26.3266 68.7289 26.1991 69.0532 26.1374C75.7806 24.4729 81.1536 25.4195 84.5848 28.8816C92.4274 36.7951 86.2529 55.2124 70.5203 70.8043C66.9791 74.3337 63.0996 77.5074 58.9352 80.2817C58.4719 80.5929 57.9104 80.7296 57.3481 80.6681C56.7858 80.6067 56.2581 80.3509 55.8562 79.9451V79.9451Z" fill="url(#paint3_linear)"/>
<path d="M55.8561 79.9451C55.6999 79.7878 55.5661 79.6098 55.4587 79.4163C41.1359 54.3096 53.7648 34.0659 54.3023 33.2161C54.6721 32.7351 55.2131 32.4156 55.8172 32.3213C56.4213 32.2271 57.0441 32.3651 57.5614 32.7077C58.0786 33.0504 58.4523 33.5725 58.6078 34.1698C58.7634 34.7672 58.6893 35.396 58.4005 35.9306C57.9196 36.6956 46.8479 54.6606 59.6486 77.0949C59.9397 77.6117 60.0371 78.2118 59.9228 78.7851C59.8086 79.3583 59.4904 79.8661 59.0266 80.2153C58.5628 80.5644 57.9847 80.7315 57.3984 80.6857C56.812 80.64 56.2569 80.3845 55.8348 79.9662L55.8561 79.9451Z" fill="url(#paint4_linear)"/>
<path d="M121.188 60.7373C121.089 62.1143 120.579 63.1982 119.659 63.9893C118.745 64.7803 117.538 65.1758 116.038 65.1758C114.397 65.1758 113.105 64.625 112.162 63.5234C111.225 62.416 110.756 60.8984 110.756 58.9707V58.1885C110.756 56.958 110.973 55.874 111.406 54.9365C111.84 53.999 112.458 53.2812 113.261 52.7832C114.069 52.2793 115.007 52.0273 116.073 52.0273C117.55 52.0273 118.739 52.4229 119.642 53.2139C120.544 54.0049 121.065 55.1152 121.206 56.5449H118.569C118.505 55.7188 118.273 55.1211 117.875 54.752C117.482 54.377 116.882 54.1895 116.073 54.1895C115.194 54.1895 114.535 54.5059 114.096 55.1387C113.662 55.7656 113.439 56.7412 113.428 58.0654V59.0322C113.428 60.415 113.636 61.4258 114.052 62.0645C114.474 62.7031 115.136 63.0225 116.038 63.0225C116.853 63.0225 117.459 62.8379 117.857 62.4688C118.262 62.0938 118.493 61.5166 118.552 60.7373H121.188ZM126.857 60.1572C126.857 59.2139 127.039 58.373 127.402 57.6348C127.766 56.8965 128.287 56.3252 128.967 55.9209C129.652 55.5166 130.446 55.3145 131.349 55.3145C132.632 55.3145 133.678 55.707 134.486 56.4922C135.301 57.2773 135.755 58.3438 135.849 59.6914L135.866 60.3418C135.866 61.8008 135.459 62.9727 134.645 63.8574C133.83 64.7363 132.737 65.1758 131.366 65.1758C129.995 65.1758 128.899 64.7363 128.079 63.8574C127.265 62.9785 126.857 61.7832 126.857 60.2715V60.1572ZM129.397 60.3418C129.397 61.2441 129.567 61.9355 129.907 62.416C130.247 62.8906 130.733 63.1279 131.366 63.1279C131.981 63.1279 132.462 62.8936 132.808 62.4248C133.153 61.9502 133.326 61.1943 133.326 60.1572C133.326 59.2725 133.153 58.5869 132.808 58.1006C132.462 57.6143 131.976 57.3711 131.349 57.3711C130.728 57.3711 130.247 57.6143 129.907 58.1006C129.567 58.5811 129.397 59.3281 129.397 60.3418ZM141.535 60.1748C141.535 58.6924 141.866 57.5117 142.528 56.6328C143.196 55.7539 144.107 55.3145 145.262 55.3145C146.188 55.3145 146.952 55.6602 147.556 56.3516V51.5H150.104V65H147.811L147.688 63.9893C147.055 64.7803 146.24 65.1758 145.244 65.1758C144.125 65.1758 143.226 64.7363 142.546 63.8574C141.872 62.9727 141.535 61.7451 141.535 60.1748ZM144.075 60.3594C144.075 61.25 144.23 61.9326 144.541 62.4072C144.852 62.8818 145.303 63.1191 145.895 63.1191C146.68 63.1191 147.233 62.7881 147.556 62.126V58.373C147.239 57.7109 146.691 57.3799 145.912 57.3799C144.688 57.3799 144.075 58.373 144.075 60.3594ZM159.254 65H156.705V55.4902H159.254V65ZM156.556 53.0293C156.556 52.6484 156.682 52.335 156.934 52.0889C157.191 51.8428 157.54 51.7197 157.979 51.7197C158.413 51.7197 158.759 51.8428 159.017 52.0889C159.274 52.335 159.403 52.6484 159.403 53.0293C159.403 53.416 159.271 53.7324 159.008 53.9785C158.75 54.2246 158.407 54.3477 157.979 54.3477C157.552 54.3477 157.206 54.2246 156.942 53.9785C156.685 53.7324 156.556 53.416 156.556 53.0293ZM168.192 55.4902L168.271 56.5889C168.951 55.7393 169.862 55.3145 171.005 55.3145C172.013 55.3145 172.763 55.6104 173.255 56.2021C173.747 56.7939 173.999 57.6787 174.011 58.8564V65H171.471V58.918C171.471 58.3789 171.354 57.9893 171.119 57.749C170.885 57.5029 170.495 57.3799 169.95 57.3799C169.235 57.3799 168.699 57.6846 168.342 58.2939V65H165.802V55.4902H168.192ZM180.075 60.1748C180.075 58.7158 180.421 57.541 181.112 56.6504C181.81 55.7598 182.747 55.3145 183.925 55.3145C184.968 55.3145 185.779 55.6719 186.359 56.3867L186.465 55.4902H188.768V64.6836C188.768 65.5156 188.577 66.2393 188.196 66.8545C187.821 67.4697 187.291 67.9385 186.605 68.2607C185.92 68.583 185.117 68.7441 184.197 68.7441C183.5 68.7441 182.82 68.6035 182.158 68.3223C181.496 68.0469 180.995 67.6895 180.655 67.25L181.78 65.7031C182.413 66.4121 183.181 66.7666 184.083 66.7666C184.757 66.7666 185.281 66.585 185.656 66.2217C186.031 65.8643 186.219 65.3545 186.219 64.6924V64.1826C185.633 64.8447 184.862 65.1758 183.907 65.1758C182.765 65.1758 181.839 64.7305 181.13 63.8398C180.427 62.9434 180.075 61.7568 180.075 60.2803V60.1748ZM182.615 60.3594C182.615 61.2207 182.788 61.8975 183.134 62.3896C183.479 62.876 183.954 63.1191 184.558 63.1191C185.331 63.1191 185.885 62.8291 186.219 62.249V58.25C185.879 57.6699 185.331 57.3799 184.575 57.3799C183.966 57.3799 183.485 57.6289 183.134 58.127C182.788 58.625 182.615 59.3691 182.615 60.3594Z" fill="white"/>
<path d="M125.398 89H121.883L115.039 77.7734V89H111.523V71.9375H115.039L121.895 83.1875V71.9375H125.398V89ZM139.962 89.2344C138.103 89.2344 136.587 88.6641 135.415 87.5234C134.251 86.3828 133.669 84.8633 133.669 82.9648V82.6367C133.669 81.3633 133.915 80.2266 134.407 79.2266C134.9 78.2188 135.595 77.4453 136.493 76.9062C137.4 76.3594 138.431 76.0859 139.587 76.0859C141.321 76.0859 142.685 76.6328 143.677 77.7266C144.677 78.8203 145.177 80.3711 145.177 82.3789V83.7617H137.103C137.212 84.5898 137.54 85.2539 138.087 85.7539C138.642 86.2539 139.341 86.5039 140.185 86.5039C141.489 86.5039 142.509 86.0312 143.243 85.0859L144.907 86.9492C144.4 87.668 143.712 88.2305 142.845 88.6367C141.978 89.0352 141.017 89.2344 139.962 89.2344ZM139.575 78.8281C138.903 78.8281 138.357 79.0547 137.935 79.5078C137.521 79.9609 137.255 80.6094 137.138 81.4531H141.849V81.1836C141.833 80.4336 141.63 79.8555 141.239 79.4492C140.849 79.0352 140.294 78.8281 139.575 78.8281ZM160.584 87.7109C159.748 88.7266 158.592 89.2344 157.115 89.2344C155.756 89.2344 154.717 88.8438 153.998 88.0625C153.287 87.2812 152.924 86.1367 152.908 84.6289V76.3203H156.295V84.5117C156.295 85.832 156.897 86.4922 158.1 86.4922C159.248 86.4922 160.037 86.0938 160.467 85.2969V76.3203H163.865V89H160.678L160.584 87.7109ZM176.355 73.2031V76.3203H178.523V78.8047H176.355V85.1328C176.355 85.6016 176.445 85.9375 176.624 86.1406C176.804 86.3438 177.148 86.4453 177.656 86.4453C178.031 86.4453 178.363 86.418 178.652 86.3633V88.9297C177.988 89.1328 177.304 89.2344 176.601 89.2344C174.226 89.2344 173.015 88.0352 172.968 85.6367V78.8047H171.117V76.3203H172.968V73.2031H176.355ZM193.415 79.4961C192.954 79.4336 192.547 79.4023 192.196 79.4023C190.915 79.4023 190.075 79.8359 189.676 80.7031V89H186.29V76.3203H189.489L189.583 77.832C190.262 76.668 191.204 76.0859 192.407 76.0859C192.782 76.0859 193.133 76.1367 193.461 76.2383L193.415 79.4961ZM199.986 82.543C199.986 81.2852 200.228 80.1641 200.713 79.1797C201.197 78.1953 201.892 77.4336 202.798 76.8945C203.713 76.3555 204.771 76.0859 205.974 76.0859C207.685 76.0859 209.08 76.6094 210.158 77.6562C211.244 78.7031 211.849 80.125 211.974 81.9219L211.998 82.7891C211.998 84.7344 211.455 86.2969 210.369 87.4766C209.283 88.6484 207.826 89.2344 205.998 89.2344C204.17 89.2344 202.709 88.6484 201.615 87.4766C200.529 86.3047 199.986 84.7109 199.986 82.6953V82.543ZM203.373 82.7891C203.373 83.9922 203.599 84.9141 204.052 85.5547C204.505 86.1875 205.154 86.5039 205.998 86.5039C206.818 86.5039 207.459 86.1914 207.92 85.5664C208.38 84.9336 208.611 83.9258 208.611 82.543C208.611 81.3633 208.38 80.4492 207.92 79.8008C207.459 79.1523 206.81 78.8281 205.974 78.8281C205.146 78.8281 204.505 79.1523 204.052 79.8008C203.599 80.4414 203.373 81.4375 203.373 82.7891ZM223.081 76.3203L223.186 77.7852C224.092 76.6523 225.307 76.0859 226.831 76.0859C228.175 76.0859 229.175 76.4805 229.831 77.2695C230.487 78.0586 230.823 79.2383 230.839 80.8086V89H227.452V80.8906C227.452 80.1719 227.296 79.6523 226.983 79.332C226.671 79.0039 226.151 78.8398 225.425 78.8398C224.471 78.8398 223.757 79.2461 223.28 80.0586V89H219.893V76.3203H223.081Z" fill="white"/>
<defs>
<linearGradient id="paint0_linear" x1="26.9106" y1="79.5879" x2="72.9128" y2="79.2485" gradientUnits="userSpaceOnUse">
<stop stop-color="#7E53C5"/>
<stop offset="1" stop-color="#00A79D"/>
</linearGradient>
<linearGradient id="paint1_linear" x1="-1104.62" y1="1605.75" x2="775.215" y2="1377" gradientUnits="userSpaceOnUse">
<stop stop-color="#7E53C5"/>
<stop offset="1" stop-color="#00A79D"/>
</linearGradient>
<linearGradient id="paint2_linear" x1="-2122.9" y1="3092.29" x2="-345.42" y2="3577.59" gradientUnits="userSpaceOnUse">
<stop stop-color="#7E53C5"/>
<stop offset="1" stop-color="#00A79D"/>
</linearGradient>
<linearGradient id="paint3_linear" x1="-1969.75" y1="2711.05" x2="-192.798" y2="3179.56" gradientUnits="userSpaceOnUse">
<stop stop-color="#7E53C5"/>
<stop offset="1" stop-color="#00A79D"/>
</linearGradient>
<linearGradient id="paint4_linear" x1="-1029.57" y1="1972.49" x2="588.077" y2="1929.47" gradientUnits="userSpaceOnUse">
<stop stop-color="#7E53C5"/>
<stop offset="1" stop-color="#00A79D"/>
</linearGradient>
</defs>
</svg>
