<svg width="246" height="104" viewBox="0 0 246 104" fill="none" xmlns="http://www.w3.org/2000/svg">
<path d="M51.0316 75.6218C49.3557 75.0476 47.6895 74.4133 46.0751 73.7544C45.4714 73.5055 44.9896 73.0328 44.7359 72.4404C44.4821 71.8479 44.4771 71.1842 44.722 70.5953C44.9669 70.0063 45.4415 69.5404 46.0416 69.2999C46.6416 69.0595 47.3179 69.0642 47.9216 69.3131C49.4424 69.9294 51.0117 70.5305 52.5907 71.0715C61.8615 74.248 71.0892 75.6233 78.5781 74.9335C85.2819 74.3236 89.7973 72.0759 90.9286 68.7743C92.666 63.7037 86.6889 56.0955 76.0616 49.8327C75.7675 49.6758 75.5079 49.4625 75.2987 49.2056C75.0894 48.9488 74.9347 48.6537 74.844 48.3383C74.7533 48.0228 74.7284 47.6935 74.7709 47.3702C74.8134 47.047 74.9223 46.7365 75.0911 46.4575C75.2599 46.1785 75.4851 45.9369 75.7531 45.7471C76.0211 45.5574 76.3262 45.4234 76.6502 45.3535C76.9741 45.2835 77.3101 45.2789 77.6379 45.34C77.9656 45.4011 78.2783 45.5266 78.5571 45.7089C91.6539 53.4204 98.1586 62.869 95.5882 70.3708C92.0616 80.6634 72.4891 82.974 51.0316 75.6218Z" fill="url(#paint0_linear)"/>
<path d="M30.3125 62.2459C30.1452 62.2094 29.9826 62.1537 29.8281 62.0799C16.7378 54.3178 10.2331 44.8692 12.8035 37.3674C16.3301 27.0748 35.8994 24.7737 57.3569 32.1258C59.0328 32.7001 60.7087 33.2743 62.3069 33.9805C62.6061 34.1031 62.8785 34.282 63.1087 34.507C63.339 34.7319 63.5224 34.9986 63.6487 35.2917C63.7749 35.5847 63.8415 35.8985 63.8445 36.215C63.8476 36.5316 63.7871 36.8447 63.6665 37.1366C63.5459 37.4284 63.3675 37.6932 63.1416 37.9159C62.9157 38.1386 62.6467 38.3148 62.3499 38.4344C62.0531 38.5541 61.7343 38.6148 61.4118 38.6132C61.0892 38.6116 60.7693 38.5477 60.4701 38.4251C58.9493 37.8088 57.3768 37.2172 55.7977 36.6761C46.527 33.4996 37.2993 32.1243 29.8136 32.8047C23.1099 33.4146 18.5944 35.6623 17.4631 38.9639C15.7257 44.0345 21.7028 51.6427 32.3268 57.915C32.8515 58.2223 33.2441 58.7081 33.4286 59.2784C33.6132 59.8486 33.5766 60.4627 33.3259 61.0017C33.0752 61.5408 32.6282 61.9664 32.0715 62.1963C31.5148 62.4261 30.888 62.4438 30.3125 62.2459Z" fill="url(#paint1_linear)"/>
<path d="M38.2651 87.8458C27.7253 84.2345 25.0954 64.9932 32.2751 44.0391C33.9898 38.9635 36.2385 34.0838 38.9854 29.478C39.149 29.2079 39.3658 28.9728 39.6232 28.7862C39.8807 28.5995 40.1738 28.4651 40.4858 28.3904C40.7979 28.3157 41.1228 28.3023 41.4419 28.351C41.7611 28.3996 42.0683 28.5093 42.346 28.6739C42.6236 28.8384 42.8664 29.0546 43.0603 29.31C43.2542 29.5654 43.3955 29.8551 43.4761 30.1624C43.5568 30.4698 43.5752 30.7889 43.5302 31.1015C43.4853 31.414 43.378 31.7139 43.2143 31.9841C40.6396 36.3196 38.5299 40.9101 36.9185 45.683C33.8165 54.7363 32.5494 63.7735 33.3517 71.1308C34.0709 77.7196 36.4271 82.1844 39.808 83.3428C42.627 84.3087 46.2982 83.0402 50.1559 79.7743C50.6452 79.3602 51.2848 79.1563 51.9342 79.2073C52.5836 79.2583 53.1895 79.5601 53.6186 80.0464C54.0477 80.5327 54.2648 81.1635 54.2223 81.8001C54.1798 82.4368 53.881 83.0271 53.3917 83.4412C48.1113 87.8898 42.8763 89.4258 38.2651 87.8458Z" fill="url(#paint2_linear)"/>
<path d="M60.7868 71.6199C60.6374 71.5674 60.4935 71.5004 60.3574 71.4199C60.075 71.2611 59.8267 71.0495 59.6267 70.7973C59.4266 70.5451 59.2788 70.2572 59.1918 69.9503C59.1048 69.6434 59.0803 69.3236 59.1196 69.0091C59.159 68.6947 59.2615 68.3919 59.4212 68.1182C61.7697 64.0453 63.711 59.7547 65.2185 55.3056C68.3205 46.2523 69.5876 37.2151 68.7756 29.8545C68.0564 23.2656 65.7002 18.8008 62.3193 17.6424C59.5099 16.6798 55.829 17.945 51.9811 21.2142C51.7422 21.4409 51.458 21.6167 51.1459 21.7309C50.8338 21.8451 50.5003 21.8953 50.1659 21.8784C49.8314 21.8616 49.5029 21.778 49.2006 21.6328C48.8982 21.4876 48.6283 21.2838 48.4073 21.0339C48.1864 20.7841 48.019 20.4933 47.9154 20.1795C47.8119 19.8657 47.7743 19.5354 47.805 19.2087C47.8357 18.8821 47.9341 18.566 48.0941 18.2798C48.2541 17.9936 48.4724 17.7432 48.7355 17.5441C54.0257 13.0671 59.2607 11.531 63.8719 13.111C74.4117 16.7224 77.0513 35.967 69.8716 56.9211C68.2644 61.6554 66.1962 66.221 63.6954 70.5552C63.4182 71.0397 62.9758 71.4113 62.4446 71.6058C61.9134 71.8002 61.327 71.8052 60.7868 71.6199Z" fill="url(#paint3_linear)"/>
<path d="M60.7868 71.6199C60.577 71.5483 60.3781 71.4481 60.196 71.3223C36.2193 55.179 38.5534 31.4335 38.6579 30.4334C38.7759 29.8382 39.1189 29.3119 39.6184 28.9593C40.118 28.6068 40.7373 28.4541 41.3529 28.5316C41.9685 28.6091 42.5351 28.9112 42.9396 29.3775C43.3441 29.8438 43.5567 30.4401 43.5351 31.0474C43.4436 31.9463 41.4939 52.9588 62.9206 67.3828C63.4108 67.7167 63.7644 68.2113 63.9164 68.7757C64.0684 69.3401 64.0086 69.9364 63.7479 70.4551C63.4873 70.9738 63.0433 71.3801 62.4975 71.5992C61.9518 71.8184 61.3409 71.8359 60.7771 71.6483L60.7868 71.6199Z" fill="url(#paint4_linear)"/>
<path d="M123.711 39.9623C123.611 41.3392 123.101 42.4232 122.181 43.2142C121.267 44.0052 120.06 44.4008 118.56 44.4008C116.92 44.4008 115.628 43.85 114.684 42.7484C113.747 41.641 113.278 40.1234 113.278 38.1957V37.4135C113.278 36.183 113.495 35.099 113.928 34.1615C114.362 33.224 114.98 32.5062 115.783 32.0082C116.591 31.5043 117.529 31.2523 118.595 31.2523C120.072 31.2523 121.261 31.6478 122.164 32.4388C123.066 33.2299 123.588 34.3402 123.728 35.7699H121.091C121.027 34.9437 120.796 34.3461 120.397 33.9769C120.005 33.6019 119.404 33.4144 118.595 33.4144C117.716 33.4144 117.057 33.7308 116.618 34.3636C116.184 34.9906 115.962 35.9662 115.95 37.2904V38.2572C115.95 39.64 116.158 40.6508 116.574 41.2894C116.996 41.9281 117.658 42.2474 118.56 42.2474C119.375 42.2474 119.981 42.0629 120.38 41.6937C120.784 41.3187 121.015 40.7416 121.074 39.9623H123.711ZM130.82 39.3822C130.82 38.4388 131.001 37.598 131.364 36.8597C131.728 36.1215 132.249 35.5502 132.929 35.1459C133.614 34.7416 134.408 34.5394 135.311 34.5394C136.594 34.5394 137.64 34.932 138.448 35.7172C139.263 36.5023 139.717 37.5687 139.811 38.9164L139.828 39.5668C139.828 41.0258 139.421 42.1976 138.607 43.0824C137.792 43.9613 136.699 44.4008 135.328 44.4008C133.957 44.4008 132.862 43.9613 132.041 43.0824C131.227 42.2035 130.82 41.0082 130.82 39.4965V39.3822ZM133.36 39.5668C133.36 40.4691 133.529 41.1605 133.869 41.641C134.209 42.1156 134.695 42.3529 135.328 42.3529C135.944 42.3529 136.424 42.1185 136.77 41.6498C137.115 41.1752 137.288 40.4193 137.288 39.3822C137.288 38.4974 137.115 37.8119 136.77 37.3256C136.424 36.8392 135.938 36.5961 135.311 36.5961C134.69 36.5961 134.209 36.8392 133.869 37.3256C133.529 37.806 133.36 38.5531 133.36 39.5668ZM146.937 39.3998C146.937 37.9174 147.268 36.7367 147.93 35.8578C148.598 34.9789 149.51 34.5394 150.664 34.5394C151.59 34.5394 152.354 34.8851 152.958 35.5765V30.725H155.507V44.225H153.213L153.09 43.2142C152.457 44.0052 151.642 44.4008 150.646 44.4008C149.527 44.4008 148.628 43.9613 147.948 43.0824C147.274 42.1976 146.937 40.9701 146.937 39.3998ZM149.477 39.5844C149.477 40.475 149.633 41.1576 149.943 41.6322C150.254 42.1068 150.705 42.3441 151.297 42.3441C152.082 42.3441 152.635 42.0131 152.958 41.351V37.598C152.641 36.9359 152.094 36.6049 151.314 36.6049C150.09 36.6049 149.477 37.598 149.477 39.5844ZM166.096 44.225H163.547V34.7152H166.096V44.225ZM163.398 32.2543C163.398 31.8734 163.524 31.5599 163.776 31.3138C164.034 31.0677 164.382 30.9447 164.822 30.9447C165.255 30.9447 165.601 31.0677 165.859 31.3138C166.117 31.5599 166.245 31.8734 166.245 32.2543C166.245 32.641 166.114 32.9574 165.85 33.2035C165.592 33.4496 165.249 33.5726 164.822 33.5726C164.394 33.5726 164.048 33.4496 163.784 33.2035C163.527 32.9574 163.398 32.641 163.398 32.2543ZM176.474 34.7152L176.554 35.8138C177.233 34.9642 178.144 34.5394 179.287 34.5394C180.295 34.5394 181.045 34.8353 181.537 35.4271C182.029 36.0189 182.281 36.9037 182.293 38.0814V44.225H179.753V38.1429C179.753 37.6039 179.636 37.2142 179.401 36.974C179.167 36.7279 178.777 36.6049 178.232 36.6049C177.517 36.6049 176.981 36.9095 176.624 37.5189V44.225H174.084V34.7152H176.474ZM189.797 39.3998C189.797 37.9408 190.143 36.766 190.834 35.8754C191.532 34.9847 192.469 34.5394 193.647 34.5394C194.69 34.5394 195.501 34.8969 196.081 35.6117L196.187 34.7152H198.49V43.9086C198.49 44.7406 198.299 45.4642 197.918 46.0795C197.543 46.6947 197.013 47.1635 196.328 47.4857C195.642 47.808 194.839 47.9691 193.919 47.9691C193.222 47.9691 192.542 47.8285 191.88 47.5472C191.218 47.2719 190.717 46.9144 190.377 46.475L191.502 44.9281C192.135 45.6371 192.903 45.9916 193.805 45.9916C194.479 45.9916 195.003 45.8099 195.378 45.4467C195.753 45.0892 195.941 44.5795 195.941 43.9174V43.4076C195.355 44.0697 194.584 44.4008 193.629 44.4008C192.487 44.4008 191.561 43.9554 190.852 43.0648C190.149 42.1683 189.797 40.9818 189.797 39.5052V39.3998ZM192.337 39.5844C192.337 40.4457 192.51 41.1224 192.856 41.6146C193.202 42.101 193.676 42.3441 194.28 42.3441C195.053 42.3441 195.607 42.0541 195.941 41.474V37.475C195.601 36.8949 195.053 36.6049 194.297 36.6049C193.688 36.6049 193.207 36.8539 192.856 37.3519C192.51 37.85 192.337 38.5941 192.337 39.5844Z" fill="#00A79D"/>
<path d="M127.921 68.225H124.405L117.561 56.9984V68.225H114.046V51.1625H117.561L124.417 62.4125V51.1625H127.921V68.225ZM142.484 68.4594C140.625 68.4594 139.109 67.889 137.937 66.7484C136.773 65.6078 136.191 64.0883 136.191 62.1898V61.8617C136.191 60.5883 136.437 59.4515 136.929 58.4515C137.422 57.4437 138.117 56.6703 139.015 56.1312C139.922 55.5844 140.953 55.3109 142.109 55.3109C143.844 55.3109 145.207 55.8578 146.199 56.9515C147.199 58.0453 147.699 59.5961 147.699 61.6039V62.9867H139.625C139.734 63.8148 140.062 64.4789 140.609 64.9789C141.164 65.4789 141.863 65.7289 142.707 65.7289C144.011 65.7289 145.031 65.2562 145.765 64.3109L147.429 66.1742C146.922 66.8929 146.234 67.4554 145.367 67.8617C144.5 68.2601 143.539 68.4594 142.484 68.4594ZM142.097 58.0531C141.426 58.0531 140.879 58.2797 140.457 58.7328C140.043 59.1859 139.777 59.8344 139.66 60.6781H144.371V60.4086C144.355 59.6586 144.152 59.0804 143.761 58.6742C143.371 58.2601 142.816 58.0531 142.097 58.0531ZM163.106 66.9359C162.27 67.9515 161.114 68.4594 159.638 68.4594C158.278 68.4594 157.239 68.0687 156.52 67.2875C155.809 66.5062 155.446 65.3617 155.431 63.8539V55.5453H158.817V63.7367C158.817 65.057 159.419 65.7172 160.622 65.7172C161.77 65.7172 162.559 65.3187 162.989 64.5219V55.5453H166.388V68.225H163.2L163.106 66.9359ZM178.877 52.4281V55.5453H181.045V58.0297H178.877V64.3578C178.877 64.8265 178.967 65.1625 179.146 65.3656C179.326 65.5687 179.67 65.6703 180.178 65.6703C180.553 65.6703 180.885 65.6429 181.174 65.5883V68.1547C180.51 68.3578 179.826 68.4594 179.123 68.4594C176.748 68.4594 175.537 67.2601 175.49 64.8617V58.0297H173.639V55.5453H175.49V52.4281H178.877ZM195.937 58.7211C195.476 58.6586 195.069 58.6273 194.718 58.6273C193.437 58.6273 192.597 59.0609 192.198 59.9281V68.225H188.812V55.5453H192.011L192.105 57.057C192.784 55.8929 193.726 55.3109 194.929 55.3109C195.304 55.3109 195.655 55.3617 195.984 55.4633L195.937 58.7211ZM202.508 61.7679C202.508 60.5101 202.75 59.389 203.235 58.4047C203.719 57.4203 204.414 56.6586 205.321 56.1195C206.235 55.5804 207.293 55.3109 208.496 55.3109C210.207 55.3109 211.602 55.8344 212.68 56.8812C213.766 57.9281 214.371 59.35 214.496 61.1469L214.52 62.014C214.52 63.9594 213.977 65.5219 212.891 66.7015C211.805 67.8734 210.348 68.4594 208.52 68.4594C206.692 68.4594 205.231 67.8734 204.137 66.7015C203.051 65.5297 202.508 63.9359 202.508 61.9203V61.7679ZM205.895 62.014C205.895 63.2172 206.121 64.139 206.574 64.7797C207.028 65.4125 207.676 65.7289 208.52 65.7289C209.34 65.7289 209.981 65.4164 210.442 64.7914C210.903 64.1586 211.133 63.1508 211.133 61.7679C211.133 60.5883 210.903 59.6742 210.442 59.0258C209.981 58.3773 209.332 58.0531 208.496 58.0531C207.668 58.0531 207.028 58.3773 206.574 59.0258C206.121 59.6664 205.895 60.6625 205.895 62.014ZM225.603 55.5453L225.708 57.0101C226.615 55.8773 227.829 55.3109 229.353 55.3109C230.697 55.3109 231.697 55.7054 232.353 56.4945C233.009 57.2836 233.345 58.4633 233.361 60.0336V68.225H229.974V60.1156C229.974 59.3969 229.818 58.8773 229.505 58.557C229.193 58.2289 228.673 58.0648 227.947 58.0648C226.993 58.0648 226.279 58.4711 225.802 59.2836V68.225H222.415V55.5453H225.603Z" fill="#0793BF"/>
<defs>
<linearGradient id="paint0_linear" x1="34.6888" y1="84.1446" x2="75.7628" y2="63.4267" gradientUnits="userSpaceOnUse">
<stop stop-color="#7E53C5"/>
<stop offset="1" stop-color="#00A79D"/>
</linearGradient>
<linearGradient id="paint1_linear" x1="-302.079" y1="1953.94" x2="1281.02" y2="914.749" gradientUnits="userSpaceOnUse">
<stop stop-color="#7E53C5"/>
<stop offset="1" stop-color="#00A79D"/>
</linearGradient>
<linearGradient id="paint2_linear" x1="-554.948" y1="3737.97" x2="1253.3" y2="3384.09" gradientUnits="userSpaceOnUse">
<stop stop-color="#7E53C5"/>
<stop offset="1" stop-color="#00A79D"/>
</linearGradient>
<linearGradient id="paint3_linear" x1="-586.881" y1="3328.36" x2="1213.44" y2="2959.67" gradientUnits="userSpaceOnUse">
<stop stop-color="#7E53C5"/>
<stop offset="1" stop-color="#00A79D"/>
</linearGradient>
<linearGradient id="paint4_linear" x1="-72.0833" y1="2249.28" x2="1358.48" y2="1492.89" gradientUnits="userSpaceOnUse">
<stop stop-color="#7E53C5"/>
<stop offset="1" stop-color="#00A79D"/>
</linearGradient>
</defs>
</svg>
