<svg width="246" height="105" viewBox="0 0 246 105" fill="none" xmlns="http://www.w3.org/2000/svg">
<path d="M51.5095 76.3969C49.8336 75.8226 48.1674 75.1883 46.553 74.5294C45.9493 74.2805 45.4676 73.8078 45.2138 73.2154C44.96 72.6229 44.955 71.9592 45.1999 71.3703C45.4448 70.7813 45.9194 70.3154 46.5195 70.0749C47.1195 69.8345 47.7958 69.8393 48.3995 70.0882C49.9203 70.7044 51.4896 71.3055 53.0686 71.8465C62.3394 75.0231 71.5671 76.3984 79.056 75.7086C85.7598 75.0986 90.2752 72.8509 91.4065 69.5493C93.1439 64.4787 87.1668 56.8705 76.5395 50.6077C76.2454 50.4508 75.9858 50.2375 75.7766 49.9807C75.5673 49.7238 75.4126 49.4288 75.3219 49.1133C75.2312 48.7978 75.2063 48.4685 75.2488 48.1453C75.2913 47.822 75.4002 47.5115 75.569 47.2325C75.7378 46.9536 75.963 46.7119 76.231 46.5221C76.499 46.3324 76.8041 46.1985 77.1281 46.1285C77.452 46.0585 77.788 46.0539 78.1158 46.115C78.4435 46.1761 78.7562 46.3016 79.035 46.4839C92.1318 54.1954 98.6365 63.644 96.0661 71.1459C92.5395 81.4385 72.967 83.749 51.5095 76.3969Z" fill="url(#paint0_linear)"/>
<path d="M30.7904 63.0209C30.6231 62.9845 30.4605 62.9287 30.306 62.855C17.2157 55.0928 10.711 45.6442 13.2814 38.1424C16.808 27.8498 36.3773 25.5487 57.8348 32.9009C59.5107 33.4751 61.1866 34.0493 62.7848 34.7555C63.084 34.8781 63.3564 35.057 63.5866 35.282C63.8169 35.507 64.0003 35.7736 64.1266 36.0667C64.2528 36.3597 64.3194 36.6735 64.3224 36.9901C64.3255 37.3066 64.265 37.6197 64.1444 37.9116C64.0238 38.2034 63.8454 38.4682 63.6195 38.6909C63.3936 38.9136 63.1246 39.0898 62.8278 39.2095C62.531 39.3291 62.2122 39.3899 61.8897 39.3883C61.5671 39.3866 61.2472 39.3227 60.948 39.2001C59.4272 38.5839 57.8547 37.9922 56.2757 37.4512C47.0049 34.2746 37.7772 32.8993 30.2916 33.5797C23.5878 34.1897 19.0723 36.4374 17.941 39.7389C16.2036 44.8096 22.1808 52.4177 32.8047 58.69C33.3294 58.9974 33.722 59.4832 33.9065 60.0534C34.0911 60.6236 34.0545 61.2377 33.8038 61.7768C33.5531 62.3158 33.1061 62.7415 32.5494 62.9713C31.9927 63.2011 31.3659 63.2188 30.7904 63.0209V63.0209Z" fill="url(#paint1_linear)"/>
<path d="M38.743 88.6209C28.2032 85.0095 25.5733 65.7682 32.753 44.8141C34.4677 39.7386 36.7164 34.8588 39.4633 30.253C39.627 29.9829 39.8437 29.7478 40.1011 29.5612C40.3586 29.3746 40.6517 29.2401 40.9637 29.1654C41.2758 29.0907 41.6007 29.0773 41.9198 29.126C42.239 29.1746 42.5462 29.2844 42.8239 29.4489C43.1015 29.6135 43.3443 29.8296 43.5382 30.085C43.7321 30.3404 43.8734 30.6301 43.954 30.9375C44.0347 31.2448 44.0531 31.5639 44.0081 31.8765C43.9632 32.189 43.8559 32.4889 43.6922 32.7591C41.1175 37.0947 39.0078 41.6851 37.3964 46.458C34.2944 55.5113 33.0273 64.5485 33.8296 71.9058C34.5488 78.4946 36.905 82.9594 40.2859 84.1179C43.1049 85.0838 46.7761 83.8153 50.6338 80.5494C51.1231 80.1353 51.7627 79.9313 52.4121 79.9823C53.0615 80.0333 53.6674 80.3352 54.0965 80.8214C54.5256 81.3077 54.7427 81.9385 54.7002 82.5752C54.6577 83.2118 54.3589 83.8021 53.8696 84.2162C48.5892 88.6648 43.3542 90.2008 38.743 88.6209Z" fill="url(#paint2_linear)"/>
<path d="M61.2647 72.3949C61.1153 72.3425 60.9714 72.2755 60.8353 72.195C60.5529 72.0361 60.3046 71.8245 60.1046 71.5723C59.9045 71.3201 59.7568 71.0322 59.6697 70.7253C59.5827 70.4185 59.5582 70.0986 59.5975 69.7841C59.6369 69.4697 59.7394 69.1669 59.8991 68.8932C62.2476 64.8203 64.1889 60.5297 65.6964 56.0806C68.7984 47.0273 70.0655 37.9901 69.2535 30.6295C68.5343 24.0406 66.1781 19.5758 62.7972 18.4174C59.9879 17.4548 56.307 18.72 52.459 21.9893C52.2201 22.2159 51.9359 22.3917 51.6238 22.5059C51.3117 22.6201 50.9783 22.6703 50.6438 22.6535C50.3093 22.6366 49.9808 22.553 49.6785 22.4078C49.3761 22.2626 49.1062 22.0588 48.8852 21.809C48.6643 21.5591 48.4969 21.2684 48.3933 20.9545C48.2898 20.6407 48.2522 20.3104 48.2829 19.9838C48.3137 19.6571 48.412 19.341 48.572 19.0548C48.732 18.7686 48.9503 18.5183 49.2135 18.3191C54.5036 13.8421 59.7386 12.3061 64.3498 13.886C74.8897 17.4974 77.5292 36.742 70.3495 57.6961C68.7423 62.4304 66.6741 66.996 64.1733 71.3303C63.8961 71.8147 63.4537 72.1864 62.9225 72.3808C62.3913 72.5752 61.8049 72.5802 61.2647 72.3949V72.3949Z" fill="url(#paint3_linear)"/>
<path d="M61.2647 72.3949C61.0549 72.3233 60.856 72.2231 60.6739 72.0974C36.6972 55.954 39.0313 32.2085 39.1358 31.2084C39.2538 30.6132 39.5968 30.0869 40.0963 29.7344C40.5959 29.3819 41.2152 29.2291 41.8308 29.3066C42.4464 29.3841 43.013 29.6862 43.4175 30.1525C43.822 30.6188 44.0346 31.2151 44.013 31.8225C43.9215 32.7213 41.9718 53.7338 63.3985 68.1578C63.8887 68.4917 64.2423 68.9863 64.3943 69.5507C64.5463 70.1151 64.4865 70.7114 64.2258 71.2301C63.9652 71.7488 63.5212 72.1551 62.9754 72.3743C62.4297 72.5935 61.8188 72.6109 61.255 72.4233L61.2647 72.3949Z" fill="url(#paint4_linear)"/>
<path d="M124.188 40.7373C124.089 42.1143 123.579 43.1982 122.659 43.9893C121.745 44.7803 120.538 45.1758 119.038 45.1758C117.397 45.1758 116.105 44.625 115.162 43.5234C114.225 42.416 113.756 40.8984 113.756 38.9707V38.1885C113.756 36.958 113.973 35.874 114.406 34.9365C114.84 33.999 115.458 33.2812 116.261 32.7832C117.069 32.2793 118.007 32.0273 119.073 32.0273C120.55 32.0273 121.739 32.4229 122.642 33.2139C123.544 34.0049 124.065 35.1152 124.206 36.5449H121.569C121.505 35.7188 121.273 35.1211 120.875 34.752C120.482 34.377 119.882 34.1895 119.073 34.1895C118.194 34.1895 117.535 34.5059 117.096 35.1387C116.662 35.7656 116.439 36.7412 116.428 38.0654V39.0322C116.428 40.415 116.636 41.4258 117.052 42.0645C117.474 42.7031 118.136 43.0225 119.038 43.0225C119.853 43.0225 120.459 42.8379 120.857 42.4688C121.262 42.0938 121.493 41.5166 121.552 40.7373H124.188ZM131.297 40.1572C131.297 39.2139 131.479 38.373 131.842 37.6348C132.206 36.8965 132.727 36.3252 133.407 35.9209C134.092 35.5166 134.886 35.3145 135.789 35.3145C137.072 35.3145 138.118 35.707 138.926 36.4922C139.741 37.2773 140.195 38.3438 140.289 39.6914L140.306 40.3418C140.306 41.8008 139.899 42.9727 139.085 43.8574C138.27 44.7363 137.177 45.1758 135.806 45.1758C134.435 45.1758 133.339 44.7363 132.519 43.8574C131.705 42.9785 131.297 41.7832 131.297 40.2715V40.1572ZM133.837 40.3418C133.837 41.2441 134.007 41.9355 134.347 42.416C134.687 42.8906 135.173 43.1279 135.806 43.1279C136.421 43.1279 136.902 42.8936 137.248 42.4248C137.593 41.9502 137.766 41.1943 137.766 40.1572C137.766 39.2725 137.593 38.5869 137.248 38.1006C136.902 37.6143 136.416 37.3711 135.789 37.3711C135.168 37.3711 134.687 37.6143 134.347 38.1006C134.007 38.5811 133.837 39.3281 133.837 40.3418ZM147.415 40.1748C147.415 38.6924 147.746 37.5117 148.408 36.6328C149.076 35.7539 149.987 35.3145 151.142 35.3145C152.068 35.3145 152.832 35.6602 153.436 36.3516V31.5H155.984V45H153.691L153.568 43.9893C152.935 44.7803 152.12 45.1758 151.124 45.1758C150.005 45.1758 149.106 44.7363 148.426 43.8574C147.752 42.9727 147.415 41.7451 147.415 40.1748ZM149.955 40.3594C149.955 41.25 150.11 41.9326 150.421 42.4072C150.732 42.8818 151.183 43.1191 151.775 43.1191C152.56 43.1191 153.113 42.7881 153.436 42.126V38.373C153.119 37.7109 152.571 37.3799 151.792 37.3799C150.568 37.3799 149.955 38.373 149.955 40.3594ZM166.574 45H164.025V35.4902H166.574V45ZM163.876 33.0293C163.876 32.6484 164.002 32.335 164.254 32.0889C164.511 31.8428 164.86 31.7197 165.299 31.7197C165.733 31.7197 166.079 31.8428 166.337 32.0889C166.594 32.335 166.723 32.6484 166.723 33.0293C166.723 33.416 166.591 33.7324 166.328 33.9785C166.07 34.2246 165.727 34.3477 165.299 34.3477C164.872 34.3477 164.526 34.2246 164.262 33.9785C164.005 33.7324 163.876 33.416 163.876 33.0293ZM176.952 35.4902L177.031 36.5889C177.711 35.7393 178.622 35.3145 179.765 35.3145C180.773 35.3145 181.523 35.6104 182.015 36.2021C182.507 36.7939 182.759 37.6787 182.771 38.8564V45H180.231V38.918C180.231 38.3789 180.114 37.9893 179.879 37.749C179.645 37.5029 179.255 37.3799 178.71 37.3799C177.995 37.3799 177.459 37.6846 177.102 38.2939V45H174.562V35.4902H176.952ZM190.275 40.1748C190.275 38.7158 190.621 37.541 191.312 36.6504C192.01 35.7598 192.947 35.3145 194.125 35.3145C195.168 35.3145 195.979 35.6719 196.559 36.3867L196.665 35.4902H198.968V44.6836C198.968 45.5156 198.777 46.2393 198.396 46.8545C198.021 47.4697 197.491 47.9385 196.805 48.2607C196.12 48.583 195.317 48.7441 194.397 48.7441C193.7 48.7441 193.02 48.6035 192.358 48.3223C191.696 48.0469 191.195 47.6895 190.855 47.25L191.98 45.7031C192.613 46.4121 193.381 46.7666 194.283 46.7666C194.957 46.7666 195.481 46.585 195.856 46.2217C196.231 45.8643 196.419 45.3545 196.419 44.6924V44.1826C195.833 44.8447 195.062 45.1758 194.107 45.1758C192.965 45.1758 192.039 44.7305 191.33 43.8398C190.627 42.9434 190.275 41.7568 190.275 40.2803V40.1748ZM192.815 40.3594C192.815 41.2207 192.988 41.8975 193.334 42.3896C193.679 42.876 194.154 43.1191 194.758 43.1191C195.531 43.1191 196.085 42.8291 196.419 42.249V38.25C196.079 37.6699 195.531 37.3799 194.775 37.3799C194.166 37.3799 193.685 37.6289 193.334 38.127C192.988 38.625 192.815 39.3691 192.815 40.3594Z" fill="white"/>
<path d="M128.398 69H124.883L118.039 57.7734V69H114.523V51.9375H118.039L124.895 63.1875V51.9375H128.398V69ZM142.962 69.2344C141.103 69.2344 139.587 68.6641 138.415 67.5234C137.251 66.3828 136.669 64.8633 136.669 62.9648V62.6367C136.669 61.3633 136.915 60.2266 137.407 59.2266C137.9 58.2188 138.595 57.4453 139.493 56.9062C140.4 56.3594 141.431 56.0859 142.587 56.0859C144.321 56.0859 145.685 56.6328 146.677 57.7266C147.677 58.8203 148.177 60.3711 148.177 62.3789V63.7617H140.103C140.212 64.5898 140.54 65.2539 141.087 65.7539C141.642 66.2539 142.341 66.5039 143.185 66.5039C144.489 66.5039 145.509 66.0312 146.243 65.0859L147.907 66.9492C147.4 67.668 146.712 68.2305 145.845 68.6367C144.978 69.0352 144.017 69.2344 142.962 69.2344ZM142.575 58.8281C141.903 58.8281 141.357 59.0547 140.935 59.5078C140.521 59.9609 140.255 60.6094 140.138 61.4531H144.849V61.1836C144.833 60.4336 144.63 59.8555 144.239 59.4492C143.849 59.0352 143.294 58.8281 142.575 58.8281ZM163.584 67.7109C162.748 68.7266 161.592 69.2344 160.115 69.2344C158.756 69.2344 157.717 68.8438 156.998 68.0625C156.287 67.2812 155.924 66.1367 155.908 64.6289V56.3203H159.295V64.5117C159.295 65.832 159.897 66.4922 161.1 66.4922C162.248 66.4922 163.037 66.0938 163.467 65.2969V56.3203H166.865V69H163.678L163.584 67.7109ZM179.355 53.2031V56.3203H181.523V58.8047H179.355V65.1328C179.355 65.6016 179.445 65.9375 179.624 66.1406C179.804 66.3438 180.148 66.4453 180.656 66.4453C181.031 66.4453 181.363 66.418 181.652 66.3633V68.9297C180.988 69.1328 180.304 69.2344 179.601 69.2344C177.226 69.2344 176.015 68.0352 175.968 65.6367V58.8047H174.117V56.3203H175.968V53.2031H179.355ZM196.415 59.4961C195.954 59.4336 195.547 59.4023 195.196 59.4023C193.915 59.4023 193.075 59.8359 192.676 60.7031V69H189.29V56.3203H192.489L192.583 57.832C193.262 56.668 194.204 56.0859 195.407 56.0859C195.782 56.0859 196.133 56.1367 196.461 56.2383L196.415 59.4961ZM202.986 62.543C202.986 61.2852 203.228 60.1641 203.713 59.1797C204.197 58.1953 204.892 57.4336 205.798 56.8945C206.713 56.3555 207.771 56.0859 208.974 56.0859C210.685 56.0859 212.08 56.6094 213.158 57.6562C214.244 58.7031 214.849 60.125 214.974 61.9219L214.998 62.7891C214.998 64.7344 214.455 66.2969 213.369 67.4766C212.283 68.6484 210.826 69.2344 208.998 69.2344C207.17 69.2344 205.709 68.6484 204.615 67.4766C203.529 66.3047 202.986 64.7109 202.986 62.6953V62.543ZM206.373 62.7891C206.373 63.9922 206.599 64.9141 207.052 65.5547C207.505 66.1875 208.154 66.5039 208.998 66.5039C209.818 66.5039 210.459 66.1914 210.92 65.5664C211.38 64.9336 211.611 63.9258 211.611 62.543C211.611 61.3633 211.38 60.4492 210.92 59.8008C210.459 59.1523 209.81 58.8281 208.974 58.8281C208.146 58.8281 207.505 59.1523 207.052 59.8008C206.599 60.4414 206.373 61.4375 206.373 62.7891ZM226.081 56.3203L226.186 57.7852C227.092 56.6523 228.307 56.0859 229.831 56.0859C231.175 56.0859 232.175 56.4805 232.831 57.2695C233.487 58.0586 233.823 59.2383 233.839 60.8086V69H230.452V60.8906C230.452 60.1719 230.296 59.6523 229.983 59.332C229.671 59.0039 229.151 58.8398 228.425 58.8398C227.471 58.8398 226.757 59.2461 226.28 60.0586V69H222.893V56.3203H226.081Z" fill="white"/>
<defs>
<linearGradient id="paint0_linear" x1="35.1667" y1="84.9197" x2="76.2407" y2="64.2017" gradientUnits="userSpaceOnUse">
<stop stop-color="#7E53C5"/>
<stop offset="1" stop-color="#00A79D"/>
</linearGradient>
<linearGradient id="paint1_linear" x1="-301.601" y1="1954.71" x2="1281.49" y2="915.524" gradientUnits="userSpaceOnUse">
<stop stop-color="#7E53C5"/>
<stop offset="1" stop-color="#00A79D"/>
</linearGradient>
<linearGradient id="paint2_linear" x1="-554.47" y1="3738.74" x2="1253.77" y2="3384.87" gradientUnits="userSpaceOnUse">
<stop stop-color="#7E53C5"/>
<stop offset="1" stop-color="#00A79D"/>
</linearGradient>
<linearGradient id="paint3_linear" x1="-586.403" y1="3329.13" x2="1213.92" y2="2960.45" gradientUnits="userSpaceOnUse">
<stop stop-color="#7E53C5"/>
<stop offset="1" stop-color="#00A79D"/>
</linearGradient>
<linearGradient id="paint4_linear" x1="-71.6054" y1="2250.06" x2="1358.96" y2="1493.66" gradientUnits="userSpaceOnUse">
<stop stop-color="#7E53C5"/>
<stop offset="1" stop-color="#00A79D"/>
</linearGradient>
</defs>
</svg>
